{
	"asset":{
		"generator":"Khronos glTF Blender I/O v4.1.63",
		"version":"2.0"
	},
	"scene":0,
	"scenes":[
		{
			"name":"Scene",
			"nodes":[
				0,
				1,
				2,
				3,
				4,
				5,
				6
			]
		}
	],
	"nodes":[
		{
			"mesh":0,
			"name":"3DGeom-5",
			"rotation":[
				0.7071066498756409,
				0,
				0,
				0.70710688829422
			],
			"scale":[
				0.041523613035678864,
				0.04152362048625946,
				0.04152362048625946
			],
			"translation":[
				0.5558279156684875,
				4.250448703765869,
				-2.6091225147247314
			]
		},
		{
			"mesh":1,
			"name":"3DGeom-6",
			"rotation":[
				-0.70710688829422,
				0,
				0,
				0.7071066498756409
			],
			"scale":[
				0.041523613035678864,
				0.04152362048625946,
				0.04152362048625946
			],
			"translation":[
				1.0059216022491455,
				4.0853352546691895,
				-2.0124995708465576
			]
		},
		{
			"mesh":2,
			"name":"3DGeom-7",
			"rotation":[
				-0.70710688829422,
				0,
				0,
				0.7071066498756409
			],
			"scale":[
				0.041523613035678864,
				0.04152362048625946,
				0.04152362048625946
			],
			"translation":[
				1.0222694873809814,
				4.088604927062988,
				-2.0288474559783936
			]
		},
		{
			"mesh":3,
			"name":"3DGeom-8",
			"rotation":[
				-0.70710688829422,
				0,
				0,
				0.7071066498756409
			],
			"scale":[
				0.041523613035678864,
				0.04152362048625946,
				0.04152362048625946
			],
			"translation":[
				1.0222694873809814,
				4.180309772491455,
				-2.0288474559783936
			]
		},
		{
			"mesh":4,
			"name":"3DGeom-9",
			"rotation":[
				-0.5000000596046448,
				0.4999999403953552,
				-0.5,
				0.5
			],
			"scale":[
				0.027405593544244766,
				0.027405589818954468,
				0.00456759799271822
			],
			"translation":[
				1.100129246711731,
				4.121866703033447,
				-2.375847578048706
			]
		},
		{
			"mesh":5,
			"name":"3DGeom-10",
			"rotation":[
				-0.5000000596046448,
				0.4999999403953552,
				-0.5,
				0.5
			],
			"scale":[
				0.027405593544244766,
				0.027405589818954468,
				0.00456759799271822
			],
			"translation":[
				1.100129246711731,
				4.121866703033447,
				-2.3922688961029053
			]
		},
		{
			"mesh":6,
			"name":"3DGeom-11",
			"rotation":[
				-0.5000000596046448,
				0.4999999403953552,
				-0.5,
				0.5
			],
			"scale":[
				0.027405593544244766,
				0.027405589818954468,
				0.00456759799271822
			],
			"translation":[
				1.100129246711731,
				4.110860824584961,
				-2.3922688961029053
			]
		}
	],
	"materials":[
		{
			"doubleSided":true,
			"name":"Material.015",
			"pbrMetallicRoughness":{
				"baseColorFactor":[
					0.800000011920929,
					0.800000011920929,
					0.800000011920929,
					1
				],
				"metallicFactor":0,
				"roughnessFactor":0.5
			}
		}
	],
	"meshes":[
		{
			"name":"Mesh_4",
			"primitives":[
				{
					"attributes":{
						"POSITION":0,
						"NORMAL":1
					},
					"indices":2,
					"material":0
				}
			]
		},
		{
			"name":"Mesh_5",
			"primitives":[
				{
					"attributes":{
						"POSITION":3,
						"NORMAL":4
					},
					"indices":5
				}
			]
		},
		{
			"name":"Mesh_6",
			"primitives":[
				{
					"attributes":{
						"POSITION":6,
						"NORMAL":7
					},
					"indices":8
				}
			]
		},
		{
			"name":"Mesh_7",
			"primitives":[
				{
					"attributes":{
						"POSITION":9,
						"NORMAL":10
					},
					"indices":11
				}
			]
		},
		{
			"name":"Mesh_8",
			"primitives":[
				{
					"attributes":{
						"POSITION":12,
						"NORMAL":13
					},
					"indices":14
				}
			]
		},
		{
			"name":"Mesh_9",
			"primitives":[
				{
					"attributes":{
						"POSITION":15,
						"NORMAL":16
					},
					"indices":17
				}
			]
		},
		{
			"name":"Mesh_10",
			"primitives":[
				{
					"attributes":{
						"POSITION":18,
						"NORMAL":19
					},
					"indices":20
				}
			]
		}
	],
	"accessors":[
		{
			"bufferView":0,
			"componentType":5126,
			"count":167,
			"max":[
				37.7952766418457,
				66.77165222167969,
				3.937009334564209
			],
			"min":[
				-21.259843826293945,
				-23.77952766418457,
				6.617961503252445e-07
			],
			"type":"VEC3"
		},
		{
			"bufferView":1,
			"componentType":5126,
			"count":167,
			"type":"VEC3"
		},
		{
			"bufferView":2,
			"componentType":5123,
			"count":447,
			"type":"SCALAR"
		},
		{
			"bufferView":3,
			"componentType":5126,
			"count":1208,
			"max":[
				4.327103137969971,
				4.327103137969971,
				0.07874015718698502
			],
			"min":[
				0,
				0,
				0
			],
			"type":"VEC3"
		},
		{
			"bufferView":4,
			"componentType":5126,
			"count":1208,
			"type":"VEC3"
		},
		{
			"bufferView":5,
			"componentType":5123,
			"count":2400,
			"type":"SCALAR"
		},
		{
			"bufferView":6,
			"componentType":5126,
			"count":1208,
			"max":[
				3.539701461791992,
				3.539701461791992,
				0.890008270740509
			],
			"min":[
				0,
				0,
				0
			],
			"type":"VEC3"
		},
		{
			"bufferView":7,
			"componentType":5126,
			"count":1208,
			"type":"VEC3"
		},
		{
			"bufferView":8,
			"componentType":5123,
			"count":2388,
			"type":"SCALAR"
		},
		{
			"bufferView":9,
			"componentType":5126,
			"count":100,
			"max":[
				3.539701461791992,
				3.539701461791992,
				-2.0903868675231934
			],
			"min":[
				7.105427357601002e-15,
				0,
				-2.0903868675231934
			],
			"type":"VEC3"
		},
		{
			"bufferView":10,
			"componentType":5126,
			"count":100,
			"type":"VEC3"
		},
		{
			"bufferView":11,
			"componentType":5123,
			"count":294,
			"type":"SCALAR"
		},
		{
			"bufferView":12,
			"componentType":5126,
			"count":100,
			"max":[
				5.684341886080802e-14,
				1.6155155897140503,
				6.097917556762695
			],
			"min":[
				-2.842170943040401e-14,
				-0.4171234667301178,
				-6.097917556762695
			],
			"type":"VEC3"
		},
		{
			"bufferView":13,
			"componentType":5126,
			"count":100,
			"type":"VEC3"
		},
		{
			"bufferView":14,
			"componentType":5123,
			"count":294,
			"type":"SCALAR"
		},
		{
			"bufferView":15,
			"componentType":5126,
			"count":10974,
			"max":[
				1.4183629751205444,
				1.3359858989715576,
				8.015914916992188
			],
			"min":[
				0,
				-1.3359858989715576,
				-8.015914916992188
			],
			"type":"VEC3"
		},
		{
			"bufferView":16,
			"componentType":5126,
			"count":10974,
			"type":"VEC3"
		},
		{
			"bufferView":17,
			"componentType":5123,
			"count":16704,
			"type":"SCALAR"
		},
		{
			"bufferView":18,
			"componentType":5126,
			"count":1868,
			"max":[
				1.2350200414657593,
				1.003164291381836,
				6.018986225128174
			],
			"min":[
				-2.842170943040401e-14,
				-1.003164291381836,
				-6.018986225128174
			],
			"type":"VEC3"
		},
		{
			"bufferView":19,
			"componentType":5126,
			"count":1868,
			"type":"VEC3"
		},
		{
			"bufferView":20,
			"componentType":5123,
			"count":2592,
			"type":"SCALAR"
		}
	],
	"bufferViews":[
		{
			"buffer":0,
			"byteLength":2004,
			"byteOffset":0,
			"target":34962
		},
		{
			"buffer":0,
			"byteLength":2004,
			"byteOffset":2004,
			"target":34962
		},
		{
			"buffer":0,
			"byteLength":894,
			"byteOffset":4008,
			"target":34963
		},
		{
			"buffer":0,
			"byteLength":14496,
			"byteOffset":4904,
			"target":34962
		},
		{
			"buffer":0,
			"byteLength":14496,
			"byteOffset":19400,
			"target":34962
		},
		{
			"buffer":0,
			"byteLength":4800,
			"byteOffset":33896,
			"target":34963
		},
		{
			"buffer":0,
			"byteLength":14496,
			"byteOffset":38696,
			"target":34962
		},
		{
			"buffer":0,
			"byteLength":14496,
			"byteOffset":53192,
			"target":34962
		},
		{
			"buffer":0,
			"byteLength":4776,
			"byteOffset":67688,
			"target":34963
		},
		{
			"buffer":0,
			"byteLength":1200,
			"byteOffset":72464,
			"target":34962
		},
		{
			"buffer":0,
			"byteLength":1200,
			"byteOffset":73664,
			"target":34962
		},
		{
			"buffer":0,
			"byteLength":588,
			"byteOffset":74864,
			"target":34963
		},
		{
			"buffer":0,
			"byteLength":1200,
			"byteOffset":75452,
			"target":34962
		},
		{
			"buffer":0,
			"byteLength":1200,
			"byteOffset":76652,
			"target":34962
		},
		{
			"buffer":0,
			"byteLength":588,
			"byteOffset":77852,
			"target":34963
		},
		{
			"buffer":0,
			"byteLength":131688,
			"byteOffset":78440,
			"target":34962
		},
		{
			"buffer":0,
			"byteLength":131688,
			"byteOffset":210128,
			"target":34962
		},
		{
			"buffer":0,
			"byteLength":33408,
			"byteOffset":341816,
			"target":34963
		},
		{
			"buffer":0,
			"byteLength":22416,
			"byteOffset":375224,
			"target":34962
		},
		{
			"buffer":0,
			"byteLength":22416,
			"byteOffset":397640,
			"target":34962
		},
		{
			"buffer":0,
			"byteLength":5184,
			"byteOffset":420056,
			"target":34963
		}
	],
	"buffers":[
		{
			"byteLength":425240,
			"uri":"ceiling.bin"
		}
	]
}
