{
	"asset":{
		"generator":"Khronos glTF Blender I/O v4.1.63",
		"version":"2.0"
	},
	"scene":0,
	"scenes":[
		{
			"name":"Scene",
			"nodes":[
				0
			]
		}
	],
	"nodes":[
		{
			"mesh":0,
			"name":"3DGeom-4",
			"rotation":[
				-0.7071069478988647,
				0,
				0,
				0.7071066498756409
			],
			"scale":[
				0.0002133485395461321,
				0.00021334856864996254,
				0.00021334856864996254
			],
			"translation":[
				1.2435142993927002,
				1.6518404483795166,
				-2.896714210510254
			]
		}
	],
	"materials":[
		{
			"doubleSided":true,
			"name":"Material.020",
			"pbrMetallicRoughness":{
				"baseColorFactor":[
					0.800000011920929,
					0.800000011920929,
					0.800000011920929,
					1
				],
				"metallicFactor":0,
				"roughnessFactor":0.5
			}
		}
	],
	"meshes":[
		{
			"name":"Mesh_3",
			"primitives":[
				{
					"attributes":{
						"POSITION":0,
						"NORMAL":1
					},
					"indices":2,
					"material":0
				}
			]
		}
	],
	"accessors":[
		{
			"bufferView":0,
			"componentType":5126,
			"count":2082,
			"max":[
				229.4925537109375,
				31.26312828063965,
				229.4925537109375
			],
			"min":[
				-229.4925537109375,
				-13.945825576782227,
				-229.4925537109375
			],
			"type":"VEC3"
		},
		{
			"bufferView":1,
			"componentType":5126,
			"count":2082,
			"type":"VEC3"
		},
		{
			"bufferView":2,
			"componentType":5123,
			"count":2082,
			"type":"SCALAR"
		}
	],
	"bufferViews":[
		{
			"buffer":0,
			"byteLength":24984,
			"byteOffset":0,
			"target":34962
		},
		{
			"buffer":0,
			"byteLength":24984,
			"byteOffset":24984,
			"target":34962
		},
		{
			"buffer":0,
			"byteLength":4164,
			"byteOffset":49968,
			"target":34963
		}
	],
	"buffers":[
		{
			"byteLength":54132,
			"uri":"flush%20valve.bin"
		}
	]
}
