{
	"asset":{
		"generator":"Khronos glTF Blender I/O v4.1.63",
		"version":"2.0"
	},
	"scene":0,
	"scenes":[
		{
			"name":"Scene",
			"nodes":[
				0
			]
		}
	],
	"nodes":[
		{
			"mesh":0,
			"name":"3DGeom-22",
			"rotation":[
				-0.5,
				-0.5000000596046448,
				-0.5,
				0.4999999403953552
			],
			"scale":[
				0.04152362793684006,
				0.04152362048625946,
				0.04152362048625946
			],
			"translation":[
				-0.1634788066148758,
				2.1593706607818604,
				-1.8378697633743286
			]
		}
	],
	"materials":[
		{
			"doubleSided":true,
			"name":"Material.002",
			"pbrMetallicRoughness":{
				"baseColorFactor":[
					0.800000011920929,
					0.800000011920929,
					0.800000011920929,
					1
				],
				"metallicFactor":0
			}
		}
	],
	"meshes":[
		{
			"name":"Mesh_20",
			"primitives":[
				{
					"attributes":{
						"POSITION":0,
						"NORMAL":1
					},
					"indices":2,
					"material":0
				}
			]
		}
	],
	"accessors":[
		{
			"bufferView":0,
			"componentType":5126,
			"count":202,
			"max":[
				19.291337966918945,
				0.5403856635093689,
				31.196237564086914
			],
			"min":[
				0.3937007784843445,
				0.5403856635093689,
				0.34065163135528564
			],
			"type":"VEC3"
		},
		{
			"bufferView":1,
			"componentType":5126,
			"count":202,
			"type":"VEC3"
		},
		{
			"bufferView":2,
			"componentType":5123,
			"count":600,
			"type":"SCALAR"
		}
	],
	"bufferViews":[
		{
			"buffer":0,
			"byteLength":2424,
			"byteOffset":0,
			"target":34962
		},
		{
			"buffer":0,
			"byteLength":2424,
			"byteOffset":2424,
			"target":34962
		},
		{
			"buffer":0,
			"byteLength":1200,
			"byteOffset":4848,
			"target":34963
		}
	],
	"buffers":[
		{
			"byteLength":6048,
			"uri":"mirror.bin"
		}
	]
}
