{
	"asset":{
		"generator":"Khronos glTF Blender I/O v4.1.63",
		"version":"2.0"
	},
	"scene":0,
	"scenes":[
		{
			"name":"Scene",
			"nodes":[
				0,
				1,
				2
			]
		}
	],
	"nodes":[
		{
			"mesh":0,
			"name":"3DGeom-41",
			"rotation":[
				-0.5,
				0.5000000596046448,
				0.5,
				0.4999999403953552
			],
			"scale":[
				0.04152362793684006,
				0.04152362048625946,
				0.04152362048625946
			],
			"translation":[
				0.08150318264961243,
				1.4713093042373657,
				-1.1118100881576538
			]
		},
		{
			"mesh":1,
			"name":"3DGeom-42",
			"rotation":[
				-0.5000000596046448,
				0.5000001192092896,
				0.5000000596046448,
				0.4999999701976776
			],
			"scale":[
				0.029618486762046814,
				0.03274539113044739,
				0.04152362048625946
			],
			"translation":[
				-0.01249714195728302,
				1.4713093042373657,
				-1.1118100881576538
			]
		},
		{
			"mesh":2,
			"name":"3DGeom-45",
			"rotation":[
				-0.5,
				0.5000000596046448,
				0.5,
				0.4999999403953552
			],
			"scale":[
				0.020659472793340683,
				0.021689707413315773,
				0.04152362048625946
			],
			"translation":[
				-0.024806441739201546,
				1.5955581665039062,
				-1.1222318410873413
			]
		}
	],
	"materials":[
		{
			"doubleSided":true,
			"name":"Material.005",
			"pbrMetallicRoughness":{
				"baseColorFactor":[
					0.7939102649688721,
					0.8007512092590332,
					0.765629231929779,
					1
				],
				"roughnessFactor":0.12990973889827728
			}
		}
	],
	"meshes":[
		{
			"name":"Mesh_39",
			"primitives":[
				{
					"attributes":{
						"POSITION":0,
						"NORMAL":1
					},
					"indices":2,
					"material":0
				}
			]
		},
		{
			"name":"Mesh_40",
			"primitives":[
				{
					"attributes":{
						"POSITION":3,
						"NORMAL":4
					},
					"indices":5,
					"material":0
				}
			]
		},
		{
			"name":"Mesh_43",
			"primitives":[
				{
					"attributes":{
						"POSITION":6,
						"NORMAL":7
					},
					"indices":8,
					"material":0
				}
			]
		}
	],
	"accessors":[
		{
			"bufferView":0,
			"componentType":5126,
			"count":364,
			"max":[
				1.0409678220748901,
				2.7320234775543213,
				2.992125988006592
			],
			"min":[
				0.6569015383720398,
				0,
				2.6080596446990967
			],
			"type":"VEC3"
		},
		{
			"bufferView":1,
			"componentType":5126,
			"count":364,
			"type":"VEC3"
		},
		{
			"bufferView":2,
			"componentType":5123,
			"count":708,
			"type":"SCALAR"
		},
		{
			"bufferView":3,
			"componentType":5126,
			"count":1087,
			"max":[
				2.3622047901153564,
				2.2465901374816895,
				0.19673116505146027
			],
			"min":[
				0,
				0,
				0
			],
			"type":"VEC3"
		},
		{
			"bufferView":4,
			"componentType":5126,
			"count":1087,
			"type":"VEC3"
		},
		{
			"bufferView":5,
			"componentType":5123,
			"count":1617,
			"type":"SCALAR"
		},
		{
			"bufferView":6,
			"componentType":5126,
			"count":1202,
			"max":[
				2.3622047901153564,
				2.2465901374816895,
				0.19673116505146027
			],
			"min":[
				0,
				-4.263256414560601e-14,
				-2.8741350173950195
			],
			"type":"VEC3"
		},
		{
			"bufferView":7,
			"componentType":5126,
			"count":1202,
			"type":"VEC3"
		},
		{
			"bufferView":8,
			"componentType":5123,
			"count":1848,
			"type":"SCALAR"
		}
	],
	"bufferViews":[
		{
			"buffer":0,
			"byteLength":4368,
			"byteOffset":0,
			"target":34962
		},
		{
			"buffer":0,
			"byteLength":4368,
			"byteOffset":4368,
			"target":34962
		},
		{
			"buffer":0,
			"byteLength":1416,
			"byteOffset":8736,
			"target":34963
		},
		{
			"buffer":0,
			"byteLength":13044,
			"byteOffset":10152,
			"target":34962
		},
		{
			"buffer":0,
			"byteLength":13044,
			"byteOffset":23196,
			"target":34962
		},
		{
			"buffer":0,
			"byteLength":3234,
			"byteOffset":36240,
			"target":34963
		},
		{
			"buffer":0,
			"byteLength":14424,
			"byteOffset":39476,
			"target":34962
		},
		{
			"buffer":0,
			"byteLength":14424,
			"byteOffset":53900,
			"target":34962
		},
		{
			"buffer":0,
			"byteLength":3696,
			"byteOffset":68324,
			"target":34963
		}
	],
	"buffers":[
		{
			"byteLength":72020,
			"uri":"soap%20dispenser.bin"
		}
	]
}
