{
	"asset":{
		"generator":"Khronos glTF Blender I/O v4.1.63",
		"version":"2.0"
	},
	"scene":0,
	"scenes":[
		{
			"name":"Scene",
			"nodes":[
				0,
				1,
				2,
				3,
				4,
				5
			]
		}
	],
	"nodes":[
		{
			"mesh":0,
			"name":"3DGeom-13",
			"rotation":[
				0,
				1,
				0,
				9.715919204161122e-14
			],
			"scale":[
				0.0274969432502985,
				0.02749694511294365,
				0.02749694511294365
			],
			"translation":[
				1.939293622970581,
				2.1706063747406006,
				1.2515076398849487
			]
		},
		{
			"mesh":1,
			"name":"3DGeom-14",
			"rotation":[
				0,
				1,
				0,
				9.715919204161122e-14
			],
			"scale":[
				0.0274969432502985,
				0.02749694511294365,
				0.02749694511294365
			],
			"translation":[
				1.939293622970581,
				2.1706063747406006,
				1.2515076398849487
			]
		},
		{
			"mesh":2,
			"name":"3DGeom-15",
			"rotation":[
				0.4999999701976776,
				-0.5000000596046448,
				0.5000001192092896,
				0.5000000596046448
			],
			"scale":[
				-0.03422580659389496,
				-0.04152361676096916,
				-0.037839118391275406
			],
			"translation":[
				1.9617455005645752,
				1.9003069400787354,
				1.2348556518554688
			]
		},
		{
			"mesh":3,
			"name":"3DGeom-16",
			"rotation":[
				0.7071066498756409,
				0,
				0,
				0.70710688829422
			],
			"scale":[
				-0.041523613035678864,
				-0.04152362048625946,
				-0.04152362048625946
			],
			"translation":[
				1.922515630722046,
				1.9366824626922607,
				1.187619924545288
			]
		},
		{
			"mesh":4,
			"name":"3DGeom-17",
			"rotation":[
				-0.70710688829422,
				0,
				0,
				0.7071066498756409
			],
			"scale":[
				-0.043074194341897964,
				-0.04307420179247856,
				-0.04152362048625946
			],
			"translation":[
				1.8991601467132568,
				2.20601224899292,
				1.2178651094436646
			]
		},
		{
			"mesh":5,
			"name":"3DGeom-18",
			"rotation":[
				-0.70710688829422,
				0,
				0,
				0.7071066498756409
			],
			"scale":[
				-0.041523613035678864,
				-0.04152362048625946,
				-0.04152362048625946
			],
			"translation":[
				1.8958466053009033,
				2.202742576599121,
				1.2146515846252441
			]
		}
	],
	"meshes":[
		{
			"name":"Mesh_12",
			"primitives":[
				{
					"attributes":{
						"POSITION":0,
						"NORMAL":1
					},
					"indices":2
				}
			]
		},
		{
			"name":"Mesh_13",
			"primitives":[
				{
					"attributes":{
						"POSITION":3,
						"NORMAL":4
					},
					"indices":5
				}
			]
		},
		{
			"name":"Mesh_14",
			"primitives":[
				{
					"attributes":{
						"POSITION":6,
						"NORMAL":7
					},
					"indices":8
				}
			]
		},
		{
			"name":"Mesh_15",
			"primitives":[
				{
					"attributes":{
						"POSITION":9,
						"NORMAL":10
					},
					"indices":11
				}
			]
		},
		{
			"name":"Mesh_16",
			"primitives":[
				{
					"attributes":{
						"POSITION":12,
						"NORMAL":13
					},
					"indices":14
				}
			]
		},
		{
			"name":"Mesh_17",
			"primitives":[
				{
					"attributes":{
						"POSITION":15,
						"NORMAL":16
					},
					"indices":17
				}
			]
		}
	],
	"accessors":[
		{
			"bufferView":0,
			"componentType":5126,
			"count":392,
			"max":[
				4.527559280395508,
				0,
				4.527559280395508
			],
			"min":[
				-7.105427357601002e-15,
				-4.3307085037231445,
				0
			],
			"type":"VEC3"
		},
		{
			"bufferView":1,
			"componentType":5126,
			"count":392,
			"type":"VEC3"
		},
		{
			"bufferView":2,
			"componentType":5123,
			"count":864,
			"type":"SCALAR"
		},
		{
			"bufferView":3,
			"componentType":5126,
			"count":4,
			"max":[
				4.507080554962158,
				-1.4210854715202004e-14,
				1.5004554986953735
			],
			"min":[
				4.224270343780518,
				-4.3307085037231445,
				1.131889820098877
			],
			"type":"VEC3"
		},
		{
			"bufferView":4,
			"componentType":5126,
			"count":4,
			"type":"VEC3"
		},
		{
			"bufferView":5,
			"componentType":5123,
			"count":6,
			"type":"SCALAR"
		},
		{
			"bufferView":6,
			"componentType":5126,
			"count":1085,
			"max":[
				2.3622047901153564,
				0,
				2.2465901374816895
			],
			"min":[
				0,
				-0.19673116505146027,
				0
			],
			"type":"VEC3"
		},
		{
			"bufferView":7,
			"componentType":5126,
			"count":1085,
			"type":"VEC3"
		},
		{
			"bufferView":8,
			"componentType":5123,
			"count":1617,
			"type":"SCALAR"
		},
		{
			"bufferView":9,
			"componentType":5126,
			"count":148,
			"max":[
				0.787401556968689,
				0,
				0.31496062874794006
			],
			"min":[
				-1.3392530679702759,
				-0.31496062874794006,
				0
			],
			"type":"VEC3"
		},
		{
			"bufferView":10,
			"componentType":5126,
			"count":148,
			"type":"VEC3"
		},
		{
			"bufferView":11,
			"componentType":5123,
			"count":276,
			"type":"SCALAR"
		},
		{
			"bufferView":12,
			"componentType":5126,
			"count":148,
			"max":[
				1.0235589742660522,
				1.1102230246251565e-16,
				0.07874015718698502
			],
			"min":[
				0,
				-1.0235589742660522,
				-1.7763568394002505e-15
			],
			"type":"VEC3"
		},
		{
			"bufferView":13,
			"componentType":5126,
			"count":148,
			"type":"VEC3"
		},
		{
			"bufferView":14,
			"componentType":5123,
			"count":276,
			"type":"SCALAR"
		},
		{
			"bufferView":15,
			"componentType":5126,
			"count":124,
			"max":[
				0.8464567065238953,
				-0.05905511975288391,
				7.283464431762695
			],
			"min":[
				0.05905511975288391,
				-0.8464567065238953,
				-2.842170943040401e-14
			],
			"type":"VEC3"
		},
		{
			"bufferView":16,
			"componentType":5126,
			"count":124,
			"type":"VEC3"
		},
		{
			"bufferView":17,
			"componentType":5123,
			"count":210,
			"type":"SCALAR"
		}
	],
	"bufferViews":[
		{
			"buffer":0,
			"byteLength":4704,
			"byteOffset":0,
			"target":34962
		},
		{
			"buffer":0,
			"byteLength":4704,
			"byteOffset":4704,
			"target":34962
		},
		{
			"buffer":0,
			"byteLength":1728,
			"byteOffset":9408,
			"target":34963
		},
		{
			"buffer":0,
			"byteLength":48,
			"byteOffset":11136,
			"target":34962
		},
		{
			"buffer":0,
			"byteLength":48,
			"byteOffset":11184,
			"target":34962
		},
		{
			"buffer":0,
			"byteLength":12,
			"byteOffset":11232,
			"target":34963
		},
		{
			"buffer":0,
			"byteLength":13020,
			"byteOffset":11244,
			"target":34962
		},
		{
			"buffer":0,
			"byteLength":13020,
			"byteOffset":24264,
			"target":34962
		},
		{
			"buffer":0,
			"byteLength":3234,
			"byteOffset":37284,
			"target":34963
		},
		{
			"buffer":0,
			"byteLength":1776,
			"byteOffset":40520,
			"target":34962
		},
		{
			"buffer":0,
			"byteLength":1776,
			"byteOffset":42296,
			"target":34962
		},
		{
			"buffer":0,
			"byteLength":552,
			"byteOffset":44072,
			"target":34963
		},
		{
			"buffer":0,
			"byteLength":1776,
			"byteOffset":44624,
			"target":34962
		},
		{
			"buffer":0,
			"byteLength":1776,
			"byteOffset":46400,
			"target":34962
		},
		{
			"buffer":0,
			"byteLength":552,
			"byteOffset":48176,
			"target":34963
		},
		{
			"buffer":0,
			"byteLength":1488,
			"byteOffset":48728,
			"target":34962
		},
		{
			"buffer":0,
			"byteLength":1488,
			"byteOffset":50216,
			"target":34962
		},
		{
			"buffer":0,
			"byteLength":420,
			"byteOffset":51704,
			"target":34963
		}
	],
	"buffers":[
		{
			"byteLength":52124,
			"uri":"tissue.bin"
		}
	]
}
