{
	"asset":{
		"generator":"Khronos glTF Blender I/O v4.1.63",
		"version":"2.0"
	},
	"scene":0,
	"scenes":[
		{
			"name":"Scene",
			"nodes":[
				0
			]
		}
	],
	"nodes":[
		{
			"mesh":0,
			"name":"3DGeom-13",
			"rotation":[
				0,
				0,
				-1,
				9.715919204161122e-14
			],
			"scale":[
				0.0274969432502985,
				0.02749694511294365,
				0.02749694511294365
			],
			"translation":[
				1.939293622970581,
				1.2515076398849487,
				-2.1706063747406006
			]
		}
	],
	"materials":[
		{
			"doubleSided":true,
			"name":"Material.019",
			"pbrMetallicRoughness":{
				"baseColorFactor":[
					0.800000011920929,
					0.800000011920929,
					0.800000011920929,
					1
				],
				"metallicFactor":0,
				"roughnessFactor":0.5
			}
		}
	],
	"meshes":[
		{
			"name":"Mesh_12",
			"primitives":[
				{
					"attributes":{
						"POSITION":0,
						"NORMAL":1
					},
					"indices":2,
					"material":0
				}
			]
		}
	],
	"accessors":[
		{
			"bufferView":0,
			"componentType":5126,
			"count":392,
			"max":[
				4.527559280395508,
				4.527559280395508,
				4.3307085037231445
			],
			"min":[
				-7.105427357601002e-15,
				0,
				0
			],
			"type":"VEC3"
		},
		{
			"bufferView":1,
			"componentType":5126,
			"count":392,
			"type":"VEC3"
		},
		{
			"bufferView":2,
			"componentType":5123,
			"count":864,
			"type":"SCALAR"
		}
	],
	"bufferViews":[
		{
			"buffer":0,
			"byteLength":4704,
			"byteOffset":0,
			"target":34962
		},
		{
			"buffer":0,
			"byteLength":4704,
			"byteOffset":4704,
			"target":34962
		},
		{
			"buffer":0,
			"byteLength":1728,
			"byteOffset":9408,
			"target":34963
		}
	],
	"buffers":[
		{
			"byteLength":11136,
			"uri":"toilet%20paper.bin"
		}
	]
}
