{
	"asset":{
		"generator":"Khronos glTF Blender I/O v4.1.63",
		"version":"2.0"
	},
	"scene":0,
	"scenes":[
		{
			"name":"Scene",
			"nodes":[
				0
			]
		}
	],
	"nodes":[
		{
			"mesh":0,
			"name":"3DGeom-3",
			"rotation":[
				-0.70710688829422,
				0,
				0,
				0.7071066498756409
			],
			"scale":[
				0.04021235182881355,
				0.04055796563625336,
				0.04152362048625946
			],
			"translation":[
				0.9252897500991821,
				0.8239330053329468,
				-1.9960765838623047
			]
		}
	],
	"materials":[
		{
			"doubleSided":true,
			"name":"Material.008",
			"pbrMetallicRoughness":{
				"baseColorFactor":[
					0.800000011920929,
					0.800000011920929,
					0.800000011920929,
					1
				],
				"metallicFactor":0,
				"roughnessFactor":0.5
			}
		}
	],
	"meshes":[
		{
			"name":"Mesh_2",
			"primitives":[
				{
					"attributes":{
						"POSITION":0,
						"NORMAL":1
					},
					"indices":2,
					"material":0
				}
			]
		}
	],
	"accessors":[
		{
			"bufferView":0,
			"componentType":5126,
			"count":883,
			"max":[
				14.9606294631958,
				16.929134368896484,
				1.1811023950576782
			],
			"min":[
				0,
				0,
				0
			],
			"type":"VEC3"
		},
		{
			"bufferView":1,
			"componentType":5126,
			"count":883,
			"type":"VEC3"
		},
		{
			"bufferView":2,
			"componentType":5123,
			"count":912,
			"type":"SCALAR"
		}
	],
	"bufferViews":[
		{
			"buffer":0,
			"byteLength":10596,
			"byteOffset":0,
			"target":34962
		},
		{
			"buffer":0,
			"byteLength":10596,
			"byteOffset":10596,
			"target":34962
		},
		{
			"buffer":0,
			"byteLength":1824,
			"byteOffset":21192,
			"target":34963
		}
	],
	"buffers":[
		{
			"byteLength":23016,
			"uri":"toilet%20seat.bin"
		}
	]
}
