{
	"asset":{
		"generator":"Khronos glTF Blender I/O v4.1.63",
		"version":"2.0"
	},
	"scene":0,
	"scenes":[
		{
			"name":"Scene",
			"nodes":[
				0,
				1,
				2
			]
		}
	],
	"nodes":[
		{
			"mesh":0,
			"name":"3DGeom-15",
			"rotation":[
				0.4999999701976776,
				0.5000001192092896,
				0.5000000596046448,
				0.5000000596046448
			],
			"scale":[
				-0.03422580659389496,
				-0.037839118391275406,
				-0.04152361676096916
			],
			"translation":[
				1.9617455005645752,
				1.2348556518554688,
				-1.9003069400787354
			]
		},
		{
			"mesh":1,
			"name":"3DGeom-16",
			"rotation":[
				0.7071066498756409,
				0,
				0,
				0.70710688829422
			],
			"scale":[
				-0.041523613035678864,
				-0.04152362048625946,
				-0.04152362048625946
			],
			"translation":[
				1.922515630722046,
				1.187619924545288,
				-1.9366824626922607
			]
		},
		{
			"mesh":2,
			"name":"3DGeom-18",
			"rotation":[
				-0.70710688829422,
				0,
				0,
				0.7071066498756409
			],
			"scale":[
				-0.041523613035678864,
				-0.04152362048625946,
				-0.04152362048625946
			],
			"translation":[
				1.8958466053009033,
				1.2146515846252441,
				-2.202742576599121
			]
		}
	],
	"materials":[
		{
			"doubleSided":true,
			"name":"Material.005",
			"pbrMetallicRoughness":{
				"baseColorFactor":[
					0.7939102649688721,
					0.8007512092590332,
					0.765629231929779,
					1
				],
				"roughnessFactor":0.12990973889827728
			}
		}
	],
	"meshes":[
		{
			"name":"Mesh_14",
			"primitives":[
				{
					"attributes":{
						"POSITION":0,
						"NORMAL":1
					},
					"indices":2,
					"material":0
				}
			]
		},
		{
			"name":"Mesh_15",
			"primitives":[
				{
					"attributes":{
						"POSITION":3,
						"NORMAL":4
					},
					"indices":5,
					"material":0
				}
			]
		},
		{
			"name":"Mesh_17",
			"primitives":[
				{
					"attributes":{
						"POSITION":6,
						"NORMAL":7
					},
					"indices":8,
					"material":0
				}
			]
		}
	],
	"accessors":[
		{
			"bufferView":0,
			"componentType":5126,
			"count":1085,
			"max":[
				2.3622047901153564,
				2.2465901374816895,
				0.19673116505146027
			],
			"min":[
				0,
				0,
				0
			],
			"type":"VEC3"
		},
		{
			"bufferView":1,
			"componentType":5126,
			"count":1085,
			"type":"VEC3"
		},
		{
			"bufferView":2,
			"componentType":5123,
			"count":1617,
			"type":"SCALAR"
		},
		{
			"bufferView":3,
			"componentType":5126,
			"count":148,
			"max":[
				0.787401556968689,
				0.31496062874794006,
				0.31496062874794006
			],
			"min":[
				-1.3392530679702759,
				0,
				0
			],
			"type":"VEC3"
		},
		{
			"bufferView":4,
			"componentType":5126,
			"count":148,
			"type":"VEC3"
		},
		{
			"bufferView":5,
			"componentType":5123,
			"count":276,
			"type":"SCALAR"
		},
		{
			"bufferView":6,
			"componentType":5126,
			"count":124,
			"max":[
				0.8464567065238953,
				7.283464431762695,
				0.8464567065238953
			],
			"min":[
				0.05905511975288391,
				-2.842170943040401e-14,
				0.05905511975288391
			],
			"type":"VEC3"
		},
		{
			"bufferView":7,
			"componentType":5126,
			"count":124,
			"type":"VEC3"
		},
		{
			"bufferView":8,
			"componentType":5123,
			"count":210,
			"type":"SCALAR"
		}
	],
	"bufferViews":[
		{
			"buffer":0,
			"byteLength":13020,
			"byteOffset":0,
			"target":34962
		},
		{
			"buffer":0,
			"byteLength":13020,
			"byteOffset":13020,
			"target":34962
		},
		{
			"buffer":0,
			"byteLength":3234,
			"byteOffset":26040,
			"target":34963
		},
		{
			"buffer":0,
			"byteLength":1776,
			"byteOffset":29276,
			"target":34962
		},
		{
			"buffer":0,
			"byteLength":1776,
			"byteOffset":31052,
			"target":34962
		},
		{
			"buffer":0,
			"byteLength":552,
			"byteOffset":32828,
			"target":34963
		},
		{
			"buffer":0,
			"byteLength":1488,
			"byteOffset":33380,
			"target":34962
		},
		{
			"buffer":0,
			"byteLength":1488,
			"byteOffset":34868,
			"target":34962
		},
		{
			"buffer":0,
			"byteLength":420,
			"byteOffset":36356,
			"target":34963
		}
	],
	"buffers":[
		{
			"byteLength":36776,
			"uri":"toilet%20roll%20handler.bin"
		}
	]
}
