{
	"asset":{
		"generator":"Khronos glTF Blender I/O v4.1.63",
		"version":"2.0"
	},
	"scene":0,
	"scenes":[
		{
			"name":"Scene",
			"nodes":[
				0
			]
		}
	],
	"nodes":[
		{
			"mesh":0,
			"name":"3DGeom-2",
			"rotation":[
				-0.70710688829422,
				0,
				0,
				0.7071066498756409
			],
			"scale":[
				0.04152362421154976,
				0.041523631662130356,
				0.04152362048625946
			],
			"translation":[
				0.9220201969146729,
				0.26810500025749207,
				-1.9879025220870972
			]
		}
	],
	"materials":[
		{
			"doubleSided":true,
			"name":"Material.011",
			"pbrMetallicRoughness":{
				"baseColorFactor":[
					0.800000011920929,
					0.800000011920929,
					0.800000011920929,
					1
				],
				"metallicFactor":0,
				"roughnessFactor":0.5226585865020752
			}
		}
	],
	"meshes":[
		{
			"name":"Mesh_1",
			"primitives":[
				{
					"attributes":{
						"POSITION":0,
						"NORMAL":1
					},
					"indices":2,
					"material":0
				}
			]
		}
	],
	"accessors":[
		{
			"bufferView":0,
			"componentType":5126,
			"count":4208,
			"max":[
				14.56692886352539,
				22.047245025634766,
				13.582676887512207
			],
			"min":[
				0,
				0,
				0
			],
			"type":"VEC3"
		},
		{
			"bufferView":1,
			"componentType":5126,
			"count":4208,
			"type":"VEC3"
		},
		{
			"bufferView":2,
			"componentType":5123,
			"count":4212,
			"type":"SCALAR"
		}
	],
	"bufferViews":[
		{
			"buffer":0,
			"byteLength":50496,
			"byteOffset":0,
			"target":34962
		},
		{
			"buffer":0,
			"byteLength":50496,
			"byteOffset":50496,
			"target":34962
		},
		{
			"buffer":0,
			"byteLength":8424,
			"byteOffset":100992,
			"target":34963
		}
	],
	"buffers":[
		{
			"byteLength":109416,
			"uri":"toilet%20bowl%20and%20top.bin"
		}
	]
}
