{
	"asset":{
		"generator":"Khronos glTF Blender I/O v4.1.63",
		"version":"2.0"
	},
	"scene":0,
	"scenes":[
		{
			"name":"Scene",
			"nodes":[
				0,
				1,
				2
			]
		}
	],
	"nodes":[
		{
			"mesh":0,
			"name":"3DGeom-38",
			"rotation":[
				-0.70710688829422,
				0,
				0,
				0.7071066498756409
			],
			"scale":[
				0.033368635922670364,
				0.041523631662130356,
				0.03141262009739876
			],
			"translation":[
				-0.05199239030480385,
				1.5792518854141235,
				-1.3117581605911255
			]
		},
		{
			"mesh":1,
			"name":"3DGeom-37",
			"rotation":[
				-0.5,
				0.5000000596046448,
				0.5,
				0.4999999403953552
			],
			"scale":[
				0.020659472793340683,
				0.021689707413315773,
				0.04152362048625946
			],
			"translation":[
				-0.03543107956647873,
				1.6756627559661865,
				-1.3028876781463623
			]
		},
		{
			"mesh":2,
			"name":"3DGeom-36",
			"rotation":[
				-0.5000000596046448,
				0.5000001192092896,
				0.5000000596046448,
				0.4999999701976776
			],
			"scale":[
				0.029618486762046814,
				0.03274539113044739,
				0.04152362048625946
			],
			"translation":[
				-0.023121781647205353,
				1.4713093042373657,
				-1.2924659252166748
			]
		}
	],
	"materials":[
		{
			"doubleSided":true,
			"name":"Material.001",
			"pbrMetallicRoughness":{
				"baseColorFactor":[
					0.800000011920929,
					0.800000011920929,
					0.800000011920929,
					1
				],
				"metallicFactor":0,
				"roughnessFactor":0.5
			}
		}
	],
	"meshes":[
		{
			"name":"Mesh_36",
			"primitives":[
				{
					"attributes":{
						"POSITION":0,
						"NORMAL":1
					},
					"indices":2,
					"material":0
				}
			]
		},
		{
			"name":"Mesh_35",
			"primitives":[
				{
					"attributes":{
						"POSITION":3,
						"NORMAL":4
					},
					"indices":5,
					"material":0
				}
			]
		},
		{
			"name":"Mesh_34",
			"primitives":[
				{
					"attributes":{
						"POSITION":6,
						"NORMAL":7
					},
					"indices":8,
					"material":0
				}
			]
		}
	],
	"accessors":[
		{
			"bufferView":0,
			"componentType":5126,
			"count":5451,
			"max":[
				4.8150835037231445,
				0.748031497001648,
				2.021885633468628
			],
			"min":[
				0,
				0,
				0
			],
			"type":"VEC3"
		},
		{
			"bufferView":1,
			"componentType":5126,
			"count":5451,
			"type":"VEC3"
		},
		{
			"bufferView":2,
			"componentType":5123,
			"count":8280,
			"type":"SCALAR"
		},
		{
			"bufferView":3,
			"componentType":5126,
			"count":1194,
			"max":[
				2.3622047901153564,
				2.2465901374816895,
				0.19673116505146027
			],
			"min":[
				0,
				-4.263256414560601e-14,
				-4.803268909454346
			],
			"type":"VEC3"
		},
		{
			"bufferView":4,
			"componentType":5126,
			"count":1194,
			"type":"VEC3"
		},
		{
			"bufferView":5,
			"componentType":5123,
			"count":1848,
			"type":"SCALAR"
		},
		{
			"bufferView":6,
			"componentType":5126,
			"count":1087,
			"max":[
				2.3622047901153564,
				2.2465901374816895,
				0.19673116505146027
			],
			"min":[
				0,
				0,
				0
			],
			"type":"VEC3"
		},
		{
			"bufferView":7,
			"componentType":5126,
			"count":1087,
			"type":"VEC3"
		},
		{
			"bufferView":8,
			"componentType":5123,
			"count":1617,
			"type":"SCALAR"
		}
	],
	"bufferViews":[
		{
			"buffer":0,
			"byteLength":65412,
			"byteOffset":0,
			"target":34962
		},
		{
			"buffer":0,
			"byteLength":65412,
			"byteOffset":65412,
			"target":34962
		},
		{
			"buffer":0,
			"byteLength":16560,
			"byteOffset":130824,
			"target":34963
		},
		{
			"buffer":0,
			"byteLength":14328,
			"byteOffset":147384,
			"target":34962
		},
		{
			"buffer":0,
			"byteLength":14328,
			"byteOffset":161712,
			"target":34962
		},
		{
			"buffer":0,
			"byteLength":3696,
			"byteOffset":176040,
			"target":34963
		},
		{
			"buffer":0,
			"byteLength":13044,
			"byteOffset":179736,
			"target":34962
		},
		{
			"buffer":0,
			"byteLength":13044,
			"byteOffset":192780,
			"target":34962
		},
		{
			"buffer":0,
			"byteLength":3234,
			"byteOffset":205824,
			"target":34963
		}
	],
	"buffers":[
		{
			"byteLength":209060,
			"uri":"water%20tab.bin"
		}
	]
}
