{
	"asset":{
		"generator":"Khronos glTF Blender I/O v4.1.63",
		"version":"2.0"
	},
	"scene":0,
	"scenes":[
		{
			"name":"Scene",
			"nodes":[
				0,
				1,
				2
			]
		}
	],
	"nodes":[
		{
			"mesh":0,
			"name":"3DGeom-38",
			"rotation":[
				-0.70710688829422,
				0,
				0,
				0.7071066498756409
			],
			"scale":[
				0.033368635922670364,
				0.03141262009739876,
				0.041523631662130356
			],
			"translation":[
				-0.05199239030480385,
				1.3117581605911255,
				1.5792518854141235
			]
		},
		{
			"mesh":1,
			"name":"3DGeom-39",
			"rotation":[
				-0.4372807443141937,
				-0.4372808039188385,
				0.5556848049163818,
				0.5556846857070923
			],
			"scale":[
				0.029178736731410027,
				0.025423239916563034,
				0.02645404264330864
			],
			"translation":[
				0.10270261764526367,
				1.3147096633911133,
				1.5790406465530396
			]
		},
		{
			"mesh":2,
			"name":"3DGeom-37",
			"rotation":[
				-0.5,
				-0.5,
				0.5000000596046448,
				0.4999999403953552
			],
			"scale":[
				0.020659472793340683,
				0.04152362048625946,
				0.021689707413315773
			],
			"translation":[
				-0.03543107956647873,
				1.3028876781463623,
				1.6756627559661865
			]
		}
	],
	"materials":[
		{
			"doubleSided":true,
			"name":"Material.005",
			"pbrMetallicRoughness":{
				"baseColorFactor":[
					0.8007433414459229,
					0.5142039656639099,
					0.02808191627264023,
					1
				],
				"roughnessFactor":0.12990973889827728
			}
		}
	],
	"meshes":[
		{
			"name":"Mesh_36",
			"primitives":[
				{
					"attributes":{
						"POSITION":0,
						"NORMAL":1
					},
					"indices":2,
					"material":0
				}
			]
		},
		{
			"name":"Mesh_37",
			"primitives":[
				{
					"attributes":{
						"POSITION":3,
						"NORMAL":4
					},
					"indices":5
				}
			]
		},
		{
			"name":"Mesh_35",
			"primitives":[
				{
					"attributes":{
						"POSITION":6,
						"NORMAL":7
					},
					"indices":8,
					"material":0
				}
			]
		}
	],
	"accessors":[
		{
			"bufferView":0,
			"componentType":5126,
			"count":5451,
			"max":[
				4.8150835037231445,
				0,
				0.748031497001648
			],
			"min":[
				0,
				-2.021885633468628,
				0
			],
			"type":"VEC3"
		},
		{
			"bufferView":1,
			"componentType":5126,
			"count":5451,
			"type":"VEC3"
		},
		{
			"bufferView":2,
			"componentType":5123,
			"count":8280,
			"type":"SCALAR"
		},
		{
			"bufferView":3,
			"componentType":5126,
			"count":297,
			"max":[
				0.8622047305107117,
				3.552713678800501e-15,
				1.3071279525756836
			],
			"min":[
				1.4210854715202004e-14,
				-1.3071279525756836,
				-3.552713678800501e-15
			],
			"type":"VEC3"
		},
		{
			"bufferView":4,
			"componentType":5126,
			"count":297,
			"type":"VEC3"
		},
		{
			"bufferView":5,
			"componentType":5123,
			"count":576,
			"type":"SCALAR"
		},
		{
			"bufferView":6,
			"componentType":5126,
			"count":1194,
			"max":[
				2.3622047901153564,
				4.803268909454346,
				2.2465901374816895
			],
			"min":[
				0,
				-0.19673116505146027,
				-4.263256414560601e-14
			],
			"type":"VEC3"
		},
		{
			"bufferView":7,
			"componentType":5126,
			"count":1194,
			"type":"VEC3"
		},
		{
			"bufferView":8,
			"componentType":5123,
			"count":1848,
			"type":"SCALAR"
		}
	],
	"bufferViews":[
		{
			"buffer":0,
			"byteLength":65412,
			"byteOffset":0,
			"target":34962
		},
		{
			"buffer":0,
			"byteLength":65412,
			"byteOffset":65412,
			"target":34962
		},
		{
			"buffer":0,
			"byteLength":16560,
			"byteOffset":130824,
			"target":34963
		},
		{
			"buffer":0,
			"byteLength":3564,
			"byteOffset":147384,
			"target":34962
		},
		{
			"buffer":0,
			"byteLength":3564,
			"byteOffset":150948,
			"target":34962
		},
		{
			"buffer":0,
			"byteLength":1152,
			"byteOffset":154512,
			"target":34963
		},
		{
			"buffer":0,
			"byteLength":14328,
			"byteOffset":155664,
			"target":34962
		},
		{
			"buffer":0,
			"byteLength":14328,
			"byteOffset":169992,
			"target":34962
		},
		{
			"buffer":0,
			"byteLength":3696,
			"byteOffset":184320,
			"target":34963
		}
	],
	"buffers":[
		{
			"byteLength":188016,
			"uri":"water%20%20tab.bin"
		}
	]
}
