# Blender 4.1.1
# www.blender.org
mtllib mirror.mtl
g group_22_ID582
v 0.534714 73.603050 -24.969479
v 0.534714 59.745655 -25.184559
v 0.534714 59.496868 -25.243580
v 0.534714 59.249763 -25.309299
v 0.534714 59.004528 -25.381668
v 0.534714 58.761337 -25.460638
v 0.534714 58.520370 -25.546148
v 0.534714 58.281799 -25.638149
v 0.534713 58.045807 -25.736559
v 0.534713 57.812553 -25.841309
v 0.534713 57.582222 -25.952318
v 0.534713 57.354973 -26.069529
v 0.534713 57.130974 -26.192818
v 0.534713 56.910389 -26.322128
v 0.534713 56.693378 -26.457350
v 0.534713 56.480103 -26.598389
v 0.534713 56.270714 -26.745138
v 0.534713 56.065369 -26.897499
v 0.534713 55.864216 -27.055340
v 0.534713 55.667404 -27.218569
v 0.534713 55.475075 -27.387058
v 0.534713 55.287369 -27.560678
v 0.534713 55.104420 -27.739309
v 0.534713 54.926369 -27.922817
v 0.534713 54.753342 -28.111069
v 0.534713 54.585464 -28.303940
v 0.534713 54.422863 -28.501270
v 0.534713 54.265652 -28.702919
v 0.534713 54.113949 -28.908739
v 0.534713 53.967861 -29.118587
v 0.534713 53.827499 -29.332310
v 0.534713 53.692966 -29.549747
v 0.534713 53.564358 -29.770739
v 0.534713 53.441769 -29.995129
v 0.534713 53.325287 -30.222748
v 0.534713 53.215000 -30.453438
v 0.534713 53.110985 -30.687019
v 0.534713 53.013325 -30.923319
v 0.534713 52.922085 -31.162178
v 0.534713 52.837334 -31.403419
v 0.534713 52.759132 -31.646858
v 0.534713 52.687538 -31.892319
v 0.534713 52.622604 -32.139629
v 0.534713 52.564377 -32.388611
v 0.534713 52.512897 -32.639061
v 0.534713 52.468208 -32.890820
v 0.534713 52.430340 -33.143688
v 0.534713 52.399315 -33.397488
v 0.534713 52.375164 -33.652039
v 0.534713 52.357899 -33.907150
v 0.534713 52.347538 -34.162628
v 0.534713 52.344082 -34.418297
v 0.534713 52.347538 -34.673965
v 0.534713 52.357899 -34.929451
v 0.534713 52.375164 -35.184559
v 0.534713 52.399315 -35.439106
v 0.534713 52.430340 -35.692909
v 0.534713 52.468208 -35.945782
v 0.534713 52.512897 -36.197536
v 0.534713 52.564377 -36.447994
v 0.534713 52.622604 -36.696968
v 0.534713 52.687538 -36.944275
v 0.534713 52.759132 -37.189739
v 0.534713 52.837334 -37.433182
v 0.534713 52.922085 -37.674416
v 0.534713 53.013325 -37.913277
v 0.534713 53.110985 -38.149582
v 0.534712 53.215000 -38.383163
v 0.534712 53.325287 -38.613846
v 0.534712 53.441769 -38.841465
v 0.534712 53.564358 -39.065853
v 0.534712 53.692966 -39.286846
v 0.534712 53.827499 -39.504284
v 0.534712 53.967861 -39.718006
v 0.534712 54.113949 -39.927856
v 0.534712 54.265652 -40.133682
v 0.534712 54.422863 -40.335335
v 0.534712 54.585464 -40.532661
v 0.534712 54.753342 -40.725525
v 0.534712 54.926369 -40.913780
v 0.534712 55.104420 -41.097290
v 0.534712 55.287369 -41.275921
v 0.534712 55.475075 -41.449543
v 0.534712 55.667404 -41.618027
v 0.534712 55.864216 -41.781254
v 0.534712 56.065369 -41.939102
v 0.534712 56.270714 -42.091457
v 0.534712 56.480103 -42.238209
v 0.534712 56.693378 -42.379246
v 0.534712 56.910389 -42.514465
v 0.534712 57.130974 -42.643776
v 0.534712 57.354973 -42.767075
v 0.534712 57.582222 -42.884274
v 0.534712 57.812553 -42.995289
v 0.534712 58.045807 -43.100040
v 0.534712 58.281799 -43.198452
v 0.534712 58.520370 -43.290447
v 0.534712 58.761337 -43.375961
v 0.534712 59.004528 -43.454933
v 0.534712 59.249763 -43.527306
v 0.534712 59.496868 -43.593021
v 0.534712 59.745655 -43.652035
v 0.534712 73.603050 -43.867119
v 0.534712 73.902847 -43.867016
v 0.534712 74.202499 -43.857403
v 0.534712 74.501686 -43.838287
v 0.534712 74.800117 -43.809696
v 0.534712 75.097496 -43.771648
v 0.534712 75.393517 -43.724190
v 0.534712 75.687881 -43.667362
v 0.534712 75.980301 -43.601227
v 0.534712 76.270470 -43.525848
v 0.534712 76.558098 -43.441307
v 0.534712 76.842896 -43.347679
v 0.534712 77.124603 -43.245068
v 0.534712 77.402893 -43.133572
v 0.534712 77.677505 -43.013302
v 0.534712 77.948181 -42.884384
v 0.534712 78.214615 -42.746941
v 0.534712 78.476562 -42.601120
v 0.534712 78.733749 -42.447060
v 0.534712 78.985916 -42.284924
v 0.534712 79.232826 -42.114864
v 0.534712 79.474213 -41.937061
v 0.534712 79.709831 -41.751694
v 0.534712 79.939453 -41.558941
v 0.534712 80.162849 -41.359001
v 0.534712 80.379791 -41.152077
v 0.534712 80.590050 -40.938377
v 0.534712 80.793427 -40.718113
v 0.534712 80.989731 -40.491508
v 0.534712 81.178726 -40.258793
v 0.534712 81.360260 -40.020199
v 0.534712 81.534126 -39.775963
v 0.534712 81.700157 -39.526337
v 0.534712 81.858185 -39.271572
v 0.534712 82.008057 -39.011921
v 0.534712 82.149620 -38.747646
v 0.534712 82.282715 -38.479012
v 0.534713 82.407242 -38.206295
v 0.534713 82.523041 -37.929764
v 0.534713 82.630005 -37.649696
v 0.534713 82.728050 -37.366379
v 0.534713 82.817039 -37.080093
v 0.534713 82.896919 -36.791130
v 0.534713 82.967575 -36.499775
v 0.534713 83.028969 -36.206329
v 0.534713 83.081017 -35.911079
v 0.534713 83.123672 -35.614334
v 0.534713 83.156898 -35.316380
v 0.534713 83.180649 -35.017521
v 0.534713 83.194908 -34.718060
v 0.534713 83.199669 -34.418297
v 0.534713 83.194908 -34.118538
v 0.534713 83.180649 -33.819077
v 0.534713 83.156898 -33.520218
v 0.534713 83.123672 -33.222267
v 0.534713 83.081017 -32.925518
v 0.534713 83.028969 -32.630268
v 0.534713 82.967575 -32.336819
v 0.534713 82.896919 -32.045467
v 0.534713 82.817039 -31.756508
v 0.534713 82.728050 -31.470219
v 0.534713 82.630005 -31.186899
v 0.534713 82.523041 -30.906837
v 0.534713 82.407242 -30.630299
v 0.534713 82.282715 -30.357590
v 0.534713 82.149620 -30.088949
v 0.534713 82.008057 -29.824678
v 0.534713 81.858185 -29.565029
v 0.534713 81.700157 -29.310259
v 0.534713 81.534126 -29.060629
v 0.534713 81.360260 -28.816399
v 0.534713 81.178726 -28.577808
v 0.534713 80.989731 -28.345089
v 0.534713 80.793427 -28.118488
v 0.534713 80.590050 -27.898218
v 0.534713 80.379791 -27.684519
v 0.534713 80.162849 -27.477598
v 0.534713 79.939453 -27.277658
v 0.534713 79.709831 -27.084909
v 0.534713 79.474213 -26.899538
v 0.534713 79.232826 -26.721729
v 0.534713 78.985916 -26.551680
v 0.534713 78.733749 -26.389540
v 0.534713 78.476562 -26.235479
v 0.534713 78.214615 -26.089659
v 0.534713 77.948181 -25.952219
v 0.534713 77.677505 -25.823299
v 0.534714 77.402893 -25.703030
v 0.534714 77.124603 -25.591530
v 0.534714 76.842896 -25.488918
v 0.534714 76.558098 -25.395288
v 0.534714 76.270470 -25.310749
v 0.534714 75.980301 -25.235369
v 0.534714 75.687881 -25.169239
v 0.534714 75.393517 -25.112410
v 0.534714 75.097496 -25.064949
v 0.534714 74.800117 -25.026899
v 0.534714 74.501686 -24.998308
v 0.534714 74.202499 -24.979198
v 0.534714 73.902847 -24.969580
v 0.534714 73.902847 -24.969580
v 0.534714 74.202499 -24.979198
v 0.534714 74.501686 -24.998308
v 0.534714 74.800117 -25.026899
v 0.534714 75.097496 -25.064949
v 0.534714 75.393517 -25.112410
v 0.534714 75.687881 -25.169239
v 0.534714 75.980301 -25.235369
v 0.534714 76.270470 -25.310749
v 0.534714 76.558098 -25.395288
v 0.534714 76.842896 -25.488918
v 0.534714 77.124603 -25.591530
v 0.534714 77.402893 -25.703030
v 0.534713 77.677505 -25.823299
v 0.534713 77.948181 -25.952219
v 0.534713 78.214615 -26.089659
v 0.534713 78.476562 -26.235479
v 0.534713 78.733749 -26.389540
v 0.534713 78.985916 -26.551680
v 0.534713 79.232826 -26.721729
v 0.534713 79.474213 -26.899538
v 0.534713 79.709831 -27.084909
v 0.534713 79.939453 -27.277658
v 0.534713 80.162849 -27.477598
v 0.534713 80.379791 -27.684519
v 0.534713 80.590050 -27.898218
v 0.534713 80.793427 -28.118488
v 0.534713 80.989731 -28.345089
v 0.534713 81.178726 -28.577808
v 0.534713 81.360260 -28.816399
v 0.534713 81.534126 -29.060629
v 0.534713 81.700157 -29.310259
v 0.534713 81.858185 -29.565029
v 0.534713 82.008057 -29.824678
v 0.534713 82.149620 -30.088949
v 0.534713 82.282715 -30.357590
v 0.534713 82.407242 -30.630299
v 0.534713 82.523041 -30.906837
v 0.534713 82.630005 -31.186899
v 0.534713 82.728050 -31.470219
v 0.534713 82.817039 -31.756508
v 0.534713 82.896919 -32.045467
v 0.534713 82.967575 -32.336819
v 0.534713 83.028969 -32.630268
v 0.534713 83.081017 -32.925518
v 0.534713 83.123672 -33.222267
v 0.534713 83.156898 -33.520218
v 0.534713 83.180649 -33.819077
v 0.534713 83.194908 -34.118538
v 0.534713 83.199669 -34.418297
v 0.534713 83.194908 -34.718060
v 0.534713 83.180649 -35.017521
v 0.534713 83.156898 -35.316380
v 0.534713 83.123672 -35.614334
v 0.534713 83.081017 -35.911079
v 0.534713 83.028969 -36.206329
v 0.534713 82.967575 -36.499775
v 0.534713 82.896919 -36.791130
v 0.534713 82.817039 -37.080093
v 0.534713 82.728050 -37.366379
v 0.534713 82.630005 -37.649696
v 0.534713 82.523041 -37.929764
v 0.534713 82.407242 -38.206295
v 0.534712 82.282715 -38.479012
v 0.534712 82.149620 -38.747646
v 0.534712 82.008057 -39.011921
v 0.534712 81.858185 -39.271572
v 0.534712 81.700157 -39.526337
v 0.534712 81.534126 -39.775963
v 0.534712 81.360260 -40.020199
v 0.534712 81.178726 -40.258793
v 0.534712 80.989731 -40.491508
v 0.534712 80.793427 -40.718113
v 0.534712 80.590050 -40.938377
v 0.534712 80.379791 -41.152077
v 0.534712 80.162849 -41.359001
v 0.534712 79.939453 -41.558941
v 0.534712 79.709831 -41.751694
v 0.534712 79.474213 -41.937061
v 0.534712 79.232826 -42.114864
v 0.534712 78.985916 -42.284924
v 0.534712 78.733749 -42.447060
v 0.534712 78.476562 -42.601120
v 0.534712 78.214615 -42.746941
v 0.534712 77.948181 -42.884384
v 0.534712 77.677505 -43.013302
v 0.534712 77.402893 -43.133572
v 0.534712 77.124603 -43.245068
v 0.534712 76.842896 -43.347679
v 0.534712 76.558098 -43.441307
v 0.534712 76.270470 -43.525848
v 0.534712 75.980301 -43.601227
v 0.534712 75.687881 -43.667362
v 0.534712 75.393517 -43.724190
v 0.534712 75.097496 -43.771648
v 0.534712 74.800117 -43.809696
v 0.534712 74.501686 -43.838287
v 0.534712 74.202499 -43.857403
v 0.534712 73.902847 -43.867016
v 0.534712 73.603050 -43.867119
v 0.534712 59.745655 -43.652035
v 0.534712 59.496868 -43.593021
v 0.534712 59.249763 -43.527306
v 0.534712 59.004528 -43.454933
v 0.534712 58.761337 -43.375961
v 0.534712 58.520370 -43.290447
v 0.534712 58.281799 -43.198452
v 0.534712 58.045807 -43.100040
v 0.534712 57.812553 -42.995289
v 0.534712 57.582222 -42.884274
v 0.534712 57.354973 -42.767075
v 0.534712 57.130974 -42.643776
v 0.534712 56.910389 -42.514465
v 0.534712 56.693378 -42.379246
v 0.534712 56.480103 -42.238209
v 0.534712 56.270714 -42.091457
v 0.534712 56.065369 -41.939102
v 0.534712 55.864216 -41.781254
v 0.534712 55.667404 -41.618027
v 0.534712 55.475075 -41.449543
v 0.534712 55.287369 -41.275921
v 0.534712 55.104420 -41.097290
v 0.534712 54.926369 -40.913780
v 0.534712 54.753342 -40.725525
v 0.534712 54.585464 -40.532661
v 0.534712 54.422863 -40.335335
v 0.534712 54.265652 -40.133682
v 0.534712 54.113949 -39.927856
v 0.534712 53.967861 -39.718006
v 0.534712 53.827499 -39.504284
v 0.534712 53.692966 -39.286846
v 0.534712 53.564358 -39.065853
v 0.534712 53.441769 -38.841465
v 0.534712 53.325287 -38.613846
v 0.534712 53.215000 -38.383163
v 0.534713 53.110985 -38.149582
v 0.534713 53.013325 -37.913277
v 0.534713 52.922085 -37.674416
v 0.534713 52.837334 -37.433182
v 0.534713 52.759132 -37.189739
v 0.534713 52.687538 -36.944275
v 0.534713 52.622604 -36.696968
v 0.534713 52.564377 -36.447994
v 0.534713 52.512897 -36.197536
v 0.534713 52.468208 -35.945782
v 0.534713 52.430340 -35.692909
v 0.534713 52.399315 -35.439106
v 0.534713 52.375164 -35.184559
v 0.534713 52.357899 -34.929451
v 0.534713 52.347538 -34.673965
v 0.534713 52.344082 -34.418297
v 0.534713 52.347538 -34.162628
v 0.534713 52.357899 -33.907150
v 0.534713 52.375164 -33.652039
v 0.534713 52.399315 -33.397488
v 0.534713 52.430340 -33.143688
v 0.534713 52.468208 -32.890820
v 0.534713 52.512897 -32.639061
v 0.534713 52.564377 -32.388611
v 0.534713 52.622604 -32.139629
v 0.534713 52.687538 -31.892319
v 0.534713 52.759132 -31.646858
v 0.534713 52.837334 -31.403419
v 0.534713 52.922085 -31.162178
v 0.534713 53.013325 -30.923319
v 0.534713 53.110985 -30.687019
v 0.534713 53.215000 -30.453438
v 0.534713 53.325287 -30.222748
v 0.534713 53.441769 -29.995129
v 0.534713 53.564358 -29.770739
v 0.534713 53.692966 -29.549747
v 0.534713 53.827499 -29.332310
v 0.534713 53.967861 -29.118587
v 0.534713 54.113949 -28.908739
v 0.534713 54.265652 -28.702919
v 0.534713 54.422863 -28.501270
v 0.534713 54.585464 -28.303940
v 0.534713 54.753342 -28.111069
v 0.534713 54.926369 -27.922817
v 0.534713 55.104420 -27.739309
v 0.534713 55.287369 -27.560678
v 0.534713 55.475075 -27.387058
v 0.534713 55.667404 -27.218569
v 0.534713 55.864216 -27.055340
v 0.534713 56.065369 -26.897499
v 0.534713 56.270714 -26.745138
v 0.534713 56.480103 -26.598389
v 0.534713 56.693378 -26.457350
v 0.534713 56.910389 -26.322128
v 0.534713 57.130974 -26.192818
v 0.534713 57.354973 -26.069529
v 0.534713 57.582222 -25.952318
v 0.534713 57.812553 -25.841309
v 0.534713 58.045807 -25.736559
v 0.534714 58.281799 -25.638149
v 0.534714 58.520370 -25.546148
v 0.534714 58.761337 -25.460638
v 0.534714 59.004528 -25.381668
v 0.534714 59.249763 -25.309299
v 0.534714 59.496868 -25.243580
v 0.534714 59.745655 -25.184559
v 0.534714 73.603050 -24.969479
vn 1.0000 -0.0000 -0.0000
vn -1.0000 -0.0000 -0.0000
vt 0.000000 0.000000
vt -1.929124 2.189942
vt -1.928162 2.219907
vt -1.926251 2.249826
vt -1.923392 2.279669
vt -1.919587 2.309407
vt -1.914841 2.339009
vt -1.909158 2.368445
vt -1.902545 2.397687
vt -1.895007 2.426704
vt -1.886553 2.455467
vt -1.877190 2.483947
vt -1.866929 2.512117
vt -1.855779 2.539946
vt -1.843752 2.567408
vt -1.830860 2.594475
vt -1.817116 2.621119
vt -1.802534 2.647313
vt -1.787128 2.673032
vt -1.770914 2.698249
vt -1.753909 2.722940
vt -1.736128 2.747078
vt -1.717591 2.770640
vt -1.698316 2.793602
vt -1.678322 2.815942
vt -1.657630 2.837636
vt -1.636260 2.858662
vt -1.614233 2.879000
vt -1.591573 2.898630
vt -1.568301 2.917530
vt -1.544442 2.935683
vt -1.520019 2.953070
vt -1.495056 2.969673
vt -1.469579 2.985476
vt -1.443614 3.000463
vt -1.417187 3.014619
vt -1.390323 3.027929
vt -1.363052 3.040381
vt -1.335398 3.051961
vt -1.307392 3.062658
vt -1.279060 3.072462
vt -1.250431 3.081361
vt -1.221535 3.089349
vt -1.192400 3.096415
vt -1.163055 3.102554
vt -1.133530 3.107759
vt -1.103855 3.112024
vt -1.074060 3.115347
vt -1.044174 3.117722
vt -1.014228 3.119148
vt -0.984252 3.119624
vt -0.954276 3.119148
vt -0.924330 3.117722
vt -0.894444 3.115347
vt -0.864649 3.112024
vt -0.834974 3.107759
vt -0.805449 3.102554
vt -0.776104 3.096415
vt -0.746969 3.089349
vt -0.718073 3.081361
vt -0.689444 3.072462
vt -0.661112 3.062658
vt -0.633106 3.051961
vt -0.605452 3.040381
vt -0.578180 3.027929
vt -0.551317 3.014619
vt -0.524890 3.000463
vt -0.498925 2.985476
vt -0.473448 2.969673
vt -0.448485 2.953070
vt -0.424062 2.935683
vt -0.400203 2.917530
vt -0.376931 2.898630
vt -0.354271 2.879000
vt -0.332244 2.858662
vt -0.310874 2.837636
vt -0.290182 2.815942
vt -0.270188 2.793602
vt -0.250913 2.770640
vt -0.232376 2.747078
vt -0.214595 2.722940
vt -0.197590 2.698249
vt -0.181376 2.673032
vt -0.165970 2.647313
vt -0.151388 2.621119
vt -0.137644 2.594475
vt -0.124752 2.567408
vt -0.112725 2.539946
vt -0.101575 2.512117
vt -0.091314 2.483947
vt -0.081951 2.455467
vt -0.073497 2.426704
vt -0.065959 2.397687
vt -0.059346 2.368445
vt -0.053663 2.339009
vt -0.048917 2.309407
vt -0.045112 2.279669
vt -0.042253 2.249826
vt -0.040342 2.219907
vt -0.039380 2.189942
vt -0.039370 2.159962
vt -0.060878 0.774223
vt -0.066780 0.749344
vt -0.073351 0.724634
vt -0.080589 0.700110
vt -0.088486 0.675791
vt -0.097037 0.651694
vt -0.106237 0.627837
vt -0.116078 0.604238
vt -0.126553 0.580913
vt -0.137654 0.557879
vt -0.149374 0.535154
vt -0.161704 0.512754
vt -0.174635 0.490696
vt -0.188157 0.468995
vt -0.202261 0.447667
vt -0.216936 0.426728
vt -0.232172 0.406194
vt -0.247956 0.386079
vt -0.264279 0.366397
vt -0.281128 0.347164
vt -0.298490 0.328394
vt -0.316353 0.310099
vt -0.334704 0.292294
vt -0.353529 0.274991
vt -0.372816 0.258204
vt -0.392549 0.241943
vt -0.412714 0.226222
vt -0.433296 0.211052
vt -0.454281 0.196443
vt -0.475653 0.182407
vt -0.497397 0.168954
vt -0.519496 0.156093
vt -0.541935 0.143834
vt -0.564697 0.132186
vt -0.587766 0.121157
vt -0.611124 0.110756
vt -0.634754 0.100989
vt -0.658640 0.091865
vt -0.682764 0.083390
vt -0.707108 0.075570
vt -0.731654 0.068411
vt -0.756385 0.061917
vt -0.781282 0.056095
vt -0.806328 0.050947
vt -0.831504 0.046478
vt -0.856791 0.042691
vt -0.882171 0.039589
vt -0.907626 0.037173
vt -0.933137 0.035447
vt -0.958685 0.034411
vt -0.984252 0.034065
vt -1.009819 0.034411
vt -1.035367 0.035447
vt -1.060878 0.037173
vt -1.086333 0.039589
vt -1.111713 0.042691
vt -1.137000 0.046478
vt -1.162176 0.050947
vt -1.187221 0.056095
vt -1.212119 0.061917
vt -1.236850 0.068411
vt -1.261396 0.075570
vt -1.285740 0.083390
vt -1.309864 0.091865
vt -1.333750 0.100989
vt -1.357380 0.110756
vt -1.380738 0.121157
vt -1.403807 0.132186
vt -1.426569 0.143834
vt -1.449008 0.156093
vt -1.471107 0.168954
vt -1.492851 0.182407
vt -1.514223 0.196443
vt -1.535208 0.211052
vt -1.555790 0.226222
vt -1.575955 0.241943
vt -1.595688 0.258204
vt -1.614975 0.274991
vt -1.633800 0.292294
vt -1.652151 0.310099
vt -1.670014 0.328394
vt -1.687376 0.347164
vt -1.704225 0.366397
vt -1.720548 0.386079
vt -1.736332 0.406194
vt -1.751568 0.426728
vt -1.766243 0.447667
vt -1.780347 0.468995
vt -1.793869 0.490696
vt -1.806800 0.512754
vt -1.819129 0.535154
vt -1.830850 0.557879
vt -1.841951 0.580913
vt -1.852426 0.604238
vt -1.862267 0.627837
vt -1.871467 0.651694
vt -1.880018 0.675791
vt -1.887915 0.700110
vt -1.895152 0.724634
vt -1.901724 0.749344
vt -1.907626 0.774223
vt -1.929134 2.159962
s 0
g group_22_Mirror
usemtl Mirror
f 1/1/1 2/1/1 3/1/1 4/1/1 5/1/1 6/1/1 7/1/1 8/1/1 9/1/1 10/1/1 11/1/1 12/1/1 13/1/1 14/1/1 15/1/1 16/1/1 17/1/1 18/1/1 19/1/1 20/1/1 21/1/1 22/1/1 23/1/1 24/1/1 25/1/1 26/1/1 27/1/1 28/1/1 29/1/1 30/1/1 31/1/1 32/1/1 33/1/1 34/1/1 35/1/1 36/1/1 37/1/1 38/1/1 39/1/1 40/1/1 41/1/1 42/1/1 43/1/1 44/1/1 45/1/1 46/1/1 47/1/1 48/1/1 49/1/1 50/1/1 51/1/1 52/1/1 53/1/1 54/1/1 55/1/1 56/1/1 57/1/1 58/1/1 59/1/1 60/1/1 61/1/1 62/1/1 63/1/1 64/1/1 65/1/1 66/1/1 67/1/1 68/1/1 69/1/1 70/1/1 71/1/1 72/1/1 73/1/1 74/1/1 75/1/1 76/1/1 77/1/1 78/1/1 79/1/1 80/1/1 81/1/1 82/1/1 83/1/1 84/1/1 85/1/1 86/1/1 87/1/1 88/1/1 89/1/1 90/1/1 91/1/1 92/1/1 93/1/1 94/1/1 95/1/1 96/1/1 97/1/1 98/1/1 99/1/1 100/1/1 101/1/1 102/1/1 103/1/1 104/1/1 105/1/1 106/1/1 107/1/1 108/1/1 109/1/1 110/1/1 111/1/1 112/1/1 113/1/1 114/1/1 115/1/1 116/1/1 117/1/1 118/1/1 119/1/1 120/1/1 121/1/1 122/1/1 123/1/1 124/1/1 125/1/1 126/1/1 127/1/1 128/1/1 129/1/1 130/1/1 131/1/1 132/1/1 133/1/1 134/1/1 135/1/1 136/1/1 137/1/1 138/1/1 139/1/1 140/1/1 141/1/1 142/1/1 143/1/1 144/1/1 145/1/1 146/1/1 147/1/1 148/1/1 149/1/1 150/1/1 151/1/1 152/1/1 153/1/1 154/1/1 155/1/1 156/1/1 157/1/1 158/1/1 159/1/1 160/1/1 161/1/1 162/1/1 163/1/1 164/1/1 165/1/1 166/1/1 167/1/1 168/1/1 169/1/1 170/1/1 171/1/1 172/1/1 173/1/1 174/1/1 175/1/1 176/1/1 177/1/1 178/1/1 179/1/1 180/1/1 181/1/1 182/1/1 183/1/1 184/1/1 185/1/1 186/1/1 187/1/1 188/1/1 189/1/1 190/1/1 191/1/1 192/1/1 193/1/1 194/1/1 195/1/1 196/1/1 197/1/1 198/1/1 199/1/1 200/1/1 201/1/1 202/1/1
f 203/2/2 204/3/2 205/4/2 206/5/2 207/6/2 208/7/2 209/8/2 210/9/2 211/10/2 212/11/2 213/12/2 214/13/2 215/14/2 216/15/2 217/16/2 218/17/2 219/18/2 220/19/2 221/20/2 222/21/2 223/22/2 224/23/2 225/24/2 226/25/2 227/26/2 228/27/2 229/28/2 230/29/2 231/30/2 232/31/2 233/32/2 234/33/2 235/34/2 236/35/2 237/36/2 238/37/2 239/38/2 240/39/2 241/40/2 242/41/2 243/42/2 244/43/2 245/44/2 246/45/2 247/46/2 248/47/2 249/48/2 250/49/2 251/50/2 252/51/2 253/52/2 254/53/2 255/54/2 256/55/2 257/56/2 258/57/2 259/58/2 260/59/2 261/60/2 262/61/2 263/62/2 264/63/2 265/64/2 266/65/2 267/66/2 268/67/2 269/68/2 270/69/2 271/70/2 272/71/2 273/72/2 274/73/2 275/74/2 276/75/2 277/76/2 278/77/2 279/78/2 280/79/2 281/80/2 282/81/2 283/82/2 284/83/2 285/84/2 286/85/2 287/86/2 288/87/2 289/88/2 290/89/2 291/90/2 292/91/2 293/92/2 294/93/2 295/94/2 296/95/2 297/96/2 298/97/2 299/98/2 300/99/2 301/100/2 302/101/2 303/102/2 304/103/2 305/104/2 306/105/2 307/106/2 308/107/2 309/108/2 310/109/2 311/110/2 312/111/2 313/112/2 314/113/2 315/114/2 316/115/2 317/116/2 318/117/2 319/118/2 320/119/2 321/120/2 322/121/2 323/122/2 324/123/2 325/124/2 326/125/2 327/126/2 328/127/2 329/128/2 330/129/2 331/130/2 332/131/2 333/132/2 334/133/2 335/134/2 336/135/2 337/136/2 338/137/2 339/138/2 340/139/2 341/140/2 342/141/2 343/142/2 344/143/2 345/144/2 346/145/2 347/146/2 348/147/2 349/148/2 350/149/2 351/150/2 352/151/2 353/152/2 354/153/2 355/154/2 356/155/2 357/156/2 358/157/2 359/158/2 360/159/2 361/160/2 362/161/2 363/162/2 364/163/2 365/164/2 366/165/2 367/166/2 368/167/2 369/168/2 370/169/2 371/170/2 372/171/2 373/172/2 374/173/2 375/174/2 376/175/2 377/176/2 378/177/2 379/178/2 380/179/2 381/180/2 382/181/2 383/182/2 384/183/2 385/184/2 386/185/2 387/186/2 388/187/2 389/188/2 390/189/2 391/190/2 392/191/2 393/192/2 394/193/2 395/194/2 396/195/2 397/196/2 398/197/2 399/198/2 400/199/2 401/200/2 402/201/2 403/202/2 404/203/2
